<svg width="10.000000" height="5.831787" viewBox="0 0 10 5.83179" fill="none" xmlns="http://www.w3.org/2000/svg" xmlns:xlink="http://www.w3.org/1999/xlink">
	<defs/>
	<path id="Vector" d="M9.9 0.6L9.39 0.1C9.33 0.03 9.25 0 9.16 0C9.08 0 9 0.03 8.93 0.1L5 4.03L1.06 0.1C0.99 0.03 0.91 0 0.83 0C0.74 0 0.66 0.03 0.6 0.1L0.1 0.6C0.03 0.66 0 0.74 0 0.83C0 0.91 0.03 0.99 0.1 1.06L4.76 5.73C4.83 5.79 4.91 5.83 5 5.83C5.08 5.83 5.16 5.79 5.23 5.73L9.9 1.06C9.96 0.99 10 0.91 10 0.83C10 0.74 9.96 0.66 9.9 0.6Z" fill="#ADBFDF" fill-opacity="1.000000" fill-rule="nonzero"/>
</svg>
